Patient4_TMGait_0pt4_02_right_16_EMG.mot
version=1
nRows=29
nColumns=33
inDegrees=no
endheader
time	1LAddLong	2LGlutMax	3LGlutMed	4LIliopsoas	5LSemiMemb	6LBicFemLong	7LRecFem	8LVastMed	9LVastLat	10LGasMed	11LTibAnt	12lTibPost	13LPeroneusLong	14LSol	15LExtDigLong	16LFlexDigLong	17RAddLong	18RGlutMax	19RGlutMed	20RIliopsoas	21RSemiMemb	22RBicFemLong	23RRecFem	24RVastMed	25RVastLat	26RGasMed	27RTibAnt	28RTibPost	29RPeroneusLong	30RSol	31RExtDigLong	32RFlexDigLong
20.66	-0.007629	-0.11429	-0.11444	0.017548	0.079498	-0.032654	0.058899	-0.019989	0.004578	-0.001068	-0.016479	0.036163	-0.18768	0.062561	0.30289	0.008698	0.001678	-0.11948	0.86182	-0.098419	0.026093	-0.12955	-0.15106	-0.029907	0.033569	-0.021057	-0.20187	0.003815	0.23392	0.085449	-0.000916	-0.00885
20.661	-0.01358	-0.099182	-0.1506	0.021973	0.070038	0.009766	0.011749	-0.004425	-0.000458	0.002136	0.18723	0.041199	-0.13184	0.06073	0.085449	0.003967	0.005646	-0.14511	0.6723	-0.16678	0.018616	-0.12695	-0.12314	-0.054779	0.020905	-0.016785	-0.66177	0.013275	-0.24246	0.003052	-0.001221	-0.013275
20.662	-0.013428	-0.13306	-0.21942	0.004883	0.066223	0.055542	-0.072327	0.006104	0.044708	-0.006104	0.35812	0.054321	0.046844	0.040283	0.29648	-0.00061	0.007019	-0.17929	0.024872	-0.072632	0.022736	-0.14694	-0.17685	-0.005798	0.028534	-0.021667	-0.53497	0.012207	-0.001526	0.066376	0.000305	0.001526
20.663	-0.007782	-0.095673	-0.25742	0.020599	0.024567	0.081024	-0.12024	0.001221	0.10742	-0.038605	0.17181	0.045319	0.15457	0.015411	-0.20645	0.001831	-0.00412	-0.17609	0.18799	-0.014191	0.025635	-0.14603	-0.23254	0.000458	0.014038	-0.022278	-0.41779	0.016174	0.38147	0.050049	-0.003815	-0.006714
20.664	0.005188	-0.082245	-0.03067	0.017242	0.003052	0.072479	-0.12466	0.003204	0.12161	-0.042114	-0.079651	0.043488	0.10925	0.060425	-0.1239	0.002594	-0.001221	-0.10452	0.18784	0.22964	0.031891	-0.17151	-0.32333	-0.044556	0.025787	-0.021057	-0.1294	0.013733	0.42633	0.029907	-0.003204	-0.007019
20.665	0.002747	-0.083923	0.069427	0.015411	0.018311	0.041504	-0.084229	-0.009613	0.079803	-0.061951	0.089417	0.019989	0.01709	0.073547	0.054169	0.009918	0.007019	-0.13275	-0.053558	0.40634	0.018463	-0.16876	-0.23041	-0.087891	0.007172	-0.018616	-0.23834	0.002441	0.31479	-0.000458	0.001068	-0.006104
20.666	-0.000458	-0.093384	0.025635	0.019379	0.036469	-0.017242	-0.036163	-0.021973	0.12634	-0.039825	0.17441	0.009918	0.18082	-0.025024	-0.14938	-0.002747	-0.002594	-0.16815	-0.17899	0.31616	0.012054	-0.18005	-0.08255	-0.042725	0.015106	-0.007629	-0.33203	0.00885	-0.20599	-0.098877	-0.009003	0.002594
20.667	0.003967	-0.12466	0.094147	0.011139	0.016022	-0.031433	0.010834	0.010376	0.1294	-0.037994	-0.22659	0.012207	0.28839	-0.012665	-0.37659	-0.006409	0.002594	-0.19562	-0.17258	0.12436	0.018311	-0.19653	-0.012207	-0.056305	0.003052	-0.010986	-0.46677	0.007782	-0.84763	-0.089722	-0.001831	0.001678
20.668	0.006256	-0.11871	-0.012054	-0.015869	-0.011597	-0.10483	-0.000916	-0.038605	0.080414	-0.064087	-0.07309	-0.014191	0.12894	0.027924	-0.28625	-0.003967	0.005646	-0.1944	-0.23544	0.071106	0.011444	-0.21545	0.077209	-0.058136	0.026855	-0.015717	-0.64453	-0.003204	-0.88028	-0.034027	-0.003204	0.000305
20.669	0.015717	-0.10208	-0.03891	-0.016785	-0.005951	-0.21301	-0.011139	-0.029755	0.035858	-0.070648	-0.04776	-0.007477	0.018616	-0.043945	-0.33173	0.002899	-0.011139	-0.10376	-0.023651	0.066681	0.009308	-0.23743	0.14435	-0.072784	0.012665	-0.007935	-0.36682	0.000763	0.00061	-0.052338	-0.000458	0.007629
20.67	0.009766	-0.12436	-0.07843	-0.010681	0.005188	-0.2626	0.048218	-0.014343	-0.028992	-0.092773	-0.086823	-0.002747	-0.44022	0.041809	-0.30014	0.001526	0.001831	-0.10208	0.33371	0.046234	0.016785	-0.28824	0.19104	-0.049896	0.017395	-0.009766	-0.03891	0.013885	0.13367	-0.1297	-0.00061	-0.003967
20.671	0.007477	-0.10971	-0.016174	0.000916	0.002289	-0.13702	0.089417	-0.003967	-0.073395	-0.11169	-0.02243	-0.015259	0.39825	0.01297	-0.17624	-0.010681	-0.00351	-0.090179	0.31174	-0.06546	0.009766	-0.24612	0.16419	-0.049744	0.008698	-0.01709	0.14725	-0.004272	0.28442	-0.093536	-0.00885	-0.007782
20.672	0.006104	-0.15488	-0.04364	0.029602	0.004578	-0.20416	0.19363	0.001373	-0.16586	-0.050812	-0.040588	-0.015717	0.29648	-0.018616	0.058136	-0.013885	0.00824	-0.14267	-0.089417	-0.271	0.010986	-0.17578	0.14542	-0.025635	0.026398	-0.021362	0.26459	-0.000305	0.18601	-0.056763	-0.005646	-0.008698
20.673	0.000763	-0.10971	-0.026703	0.037079	0.015564	-0.15366	0.18295	-0.001831	-0.21668	-0.026245	-0.070038	-0.014954	0.69473	0.12772	0.27405	0.005493	0.013275	-0.16998	-0.11002	-0.30334	0.014954	-0.13672	0.14358	-0.025787	0.032501	-0.02655	0.43366	0.004578	0.036011	-0.03952	-0.001373	-0.019531
20.674	0.00351	-0.097961	0.041046	0.040283	-0.03006	0.003815	0.12451	0.00061	-0.16876	0.043945	-0.084686	-0.018005	0.48721	0.081482	0.25665	0.012665	0.047607	-0.14008	0.07431	-0.015717	0.013733	-0.099182	0.079041	-0.024567	0.026398	-0.034332	0.45334	0.004578	-0.16342	-0.015259	0.001678	-0.011749
20.675	-0.001678	-0.095062	-0.14023	0.020599	-0.064392	0.10391	0.050964	0.018768	-0.075073	0.063171	-0.16388	-0.016785	0.095062	-0.0354	0.13306	0.014648	0.084839	-0.16007	0.28153	0.22018	0.00824	-0.067444	-0.014038	-0.037079	0.023346	-0.026245	0.30838	0.002747	-0.16159	0.005646	-0.001221	-0.011749
20.676	0.005646	-0.079193	-0.04715	-0.00473	-0.06546	0.062714	-0.085144	0.010223	0.052338	0.04303	-0.046539	-0.008392	0.002441	0.077515	0.23132	-0.019684	0.085754	-0.10513	0.3157	0.26886	0.005951	-0.05249	-0.070038	-0.051117	0.003052	-0.03006	-0.035706	0.005493	-0.14206	-0.024261	-0.003357	-0.007935
20.677	0.014191	-0.058899	0.049591	0.000305	-0.05127	0.019531	-0.091705	0.000916	0.036316	0.04837	0.020752	-0.013733	0.38971	0.12512	0.1738	-0.019379	0.059509	-0.075531	0.27451	0.14954	-0.003357	-0.060577	-0.042419	-0.073547	-0.003815	-0.03479	-0.48675	0.003204	0.056458	-0.084229	0.00061	-0.013428
20.678	0.006561	-0.030975	0.033722	0.019073	0.048828	-0.012512	-0.089569	0.001068	0.00946	-0.000763	0.033722	-0.010681	0.25726	0.12604	0.095062	-0.001068	0.005188	-0.022888	0.27893	0.093536	-0.010223	-0.044861	-0.000916	-0.090637	0.004272	-0.039063	-0.20279	0.003967	0.67322	-0.11856	-0.002899	-0.015259
20.679	-0.005188	-0.037994	-0.080872	0.026855	0.030518	0.036774	-0.022888	-0.000763	-0.013123	0.038147	0.050354	-0.015106	-0.37186	-0.06485	0.15213	-0.016632	-0.028534	-0.025177	0.098114	0.1062	-0.013733	-0.023804	-0.002136	-0.083008	0.005035	-0.037994	-0.03891	-0.001526	0.59982	-0.12711	-0.001526	-0.005951
20.68	-0.00824	-0.01236	0.086517	0.015717	0.004425	0.030212	-0.032196	0.005188	-0.033722	0.079193	0.071259	-0.014496	-0.86731	-0.1738	-0.065613	-0.013428	-0.056458	-0.032654	0.14145	0.009308	-0.015106	0.003662	0.003967	-0.071106	0.005493	-0.0354	0.13657	0.005493	0.22827	-0.12543	-0.009918	-0.000916
20.681	-0.002136	-0.010834	0.097351	0.008545	-0.015259	0.013428	-0.066376	-0.005035	-0.044098	-0.018158	0.036316	-0.014801	-0.72327	-0.11032	0.028534	0.008545	-0.050659	-0.0737	0.099182	-0.028687	-0.023041	-0.000916	0.059204	-0.12054	0.020142	-0.032959	0.22247	0.005341	0.023346	-0.050812	-0.005646	0.000916
20.682	0.010376	-0.00351	0.06485	0.007172	-0.007477	0.010986	-0.059052	-0.015564	0.01297	-0.004883	0.048676	-0.000916	-0.63812	0.11414	0.00473	0.023499	-0.040283	-0.09079	-0.017853	0.010681	-0.024414	0.024261	0.1535	-0.1004	0.000458	-0.02594	-0.019989	0.004272	-0.16617	0	-0.004883	0.006866
20.683	0.013123	0.036926	0.15839	0.025787	0.11932	-0.004578	-0.034637	-0.026703	0.15976	0.063171	0.014648	-0.006866	0.33066	-0.024872	-0.16678	-0.004578	-0.045166	-0.087585	-0.050812	0.048828	-0.025787	0.0354	0.30807	-0.10101	-0.015259	-0.013123	-0.034485	-0.003204	0.090637	0.031738	0.001221	0.009918
20.684	0.010834	0.006561	0.019379	0.029449	0.14862	-0.02533	0.022278	-0.005646	0.058136	0.019836	-0.063629	-0.011749	0.33752	-0.096283	0.63705	0.002289	-0.045319	-0.10712	-0.049133	0.089722	-0.017853	0.046844	0.59189	-0.088654	0.032349	-0.017853	0.074463	-0.001068	-0.1619	0.056763	-0.001831	0.001984
20.685	0.008087	0.014801	-0.038605	0.029602	0.070953	-0.007629	0.026245	0.006409	-0.024261	-0.025635	-0.019073	-0.004272	0.08728	-0.080566	-0.16449	0.002289	-0.042572	-0.09079	-0.036011	0.028687	0.001221	0.045776	0.68802	-0.10666	0.014038	-0.013123	0.09613	0.002594	0.21912	0.061188	-0.005188	-0.000916
20.686	0.008392	0.030212	0.069885	0.038147	0.061951	0.046234	-0.00946	-0.008087	0.011292	-0.072784	0.007782	-0.011749	-0.27573	-0.21301	-0.44693	-0.005798	-0.028992	-0.10773	0.072784	-0.028534	-0.003357	0.045166	0.59357	-0.13016	0.003357	-0.010071	0.30273	0.010071	-0.073547	-0.005951	-0.002899	-0.006561
20.687	0.006256	0.000458	0.073395	0.011139	0.044098	0.070038	-0.047913	0.003204	0.023041	-0.092621	-0.029755	-0.006866	-0.39917	-0.13184	-0.38559	-0.01297	-0.012665	-0.1152	-0.023346	-0.25574	-0.003815	0.069275	0.36758	-0.12741	-0.010986	-0.005188	0.15076	0.001526	-0.080566	-0.029755	-0.000916	-0.00061
20.688	0.002747	0.058746	0.047302	0.000458	0.021362	0.034027	-0.062408	0.010071	0.007324	-0.13977	0.029449	0.002594	-0.35309	-0.14755	-0.11704	-0.011902	-0.006409	-0.10788	0.013885	-0.4895	0.003815	0.093689	0.12131	-0.17197	-0.016022	-0.011292	-0.058289	0.000305	0.17212	0.12955	-0.001526	-0.006256
